<svg width="280" height="280" viewBox="0 0 280 280" fill="none" xmlns="http://www.w3.org/2000/svg">
<path d="M49.7501 43.4697C27.5991 32.0677 25.036 30.2137 27.72 27.5287C28.89 26.3587 31.8131 27.4697 48.0641 35.2627C62.8571 42.3577 70.7261 46.0967 90.5001 55.4267C104.012 61.8017 120.637 69.7387 128.5 73.5687C134.347 76.4157 134.923 76.8997 132 76.5037C130.075 76.2427 124.45 75.7307 119.5 75.3667C109.437 74.6247 116.951 78.0607 49.7501 43.4697Z" fill="#541B1B"/>
<path d="M28.2241 74.3367C27.3281 73.6827 26.9411 72.5107 27.3061 71.5607C28.2241 69.1687 26.0301 68.9917 87.5001 76.4127C99.0501 77.8077 112.55 79.3997 117.5 79.9517C122.45 80.5037 127.85 81.1807 129.5 81.4567C131.15 81.7317 140.375 82.8787 150 84.0047C159.625 85.1317 174.475 86.8917 183 87.9177C191.525 88.9427 208.4 90.9267 220.5 92.3267C232.6 93.7257 244.147 95.1387 246.161 95.4657C251.08 96.2657 253.38 98.9077 252.53 102.78C251.248 108.615 248.58 109.142 233.5 106.535C228.55 105.679 216.4 103.824 206.5 102.413C196.6 101.002 187.15 99.6267 185.5 99.3577C183.677 99.0597 185.639 100.387 190.5 102.74C210.44 112.389 219.916 116.906 225.225 119.292C231.813 122.254 233.124 124.841 230.556 129.808C228.297 134.176 224.703 133.9 215.215 128.631C210.972 126.274 200.44 120.787 191.81 116.438C183.181 112.089 176.388 108.097 176.715 107.569C177.042 107.04 176.872 106.877 176.337 107.208C175.802 107.538 168.694 104.439 160.541 100.32C148.19 94.0797 144.51 92.6777 138.476 91.9127C130.584 90.9117 118.701 89.1247 95.5001 85.4477C87.2501 84.1397 69.0861 81.3597 55.1361 79.2697C41.1861 77.1797 29.0751 74.9597 28.2241 74.3367Z" fill="#541B1B"/>
<path d="M64.8561 122.042C62.7451 116.496 66.8081 110.715 74.1231 108.858C79.0531 107.606 98.0321 108.315 101 109.863C108.077 113.552 110.004 119.099 105.984 124.209C102.991 128.015 97.7971 129.349 86.0001 129.344C77.0461 129.34 74.7901 128.995 70.6781 127.004C67.6051 125.515 65.4941 123.715 64.8561 122.042Z" fill="#541B1B"/>
<path d="M127.978 132.93C130.096 131.62 132.881 128.884 134.165 126.849L136.5 123.148L137 143.782C137.326 157.244 137.921 165.15 138.712 166.529C139.378 167.691 141.532 170.054 143.499 171.781C165.677 191.254 224.039 187.937 237.137 166.459C238.99 163.42 238.993 163.44 238.996 180.788C238.998 190.026 239.286 196.761 239.134 201.293C239.899 207.109 239.245 217.395 237.653 221.198C234.605 228.479 224.526 234.785 210 238.499C199.541 241.172 175.532 241.177 165.5 238.508C151.971 234.908 143.243 229.64 138.837 222.416L137.007 219.416L137.004 225.101C137.002 228.228 136.522 232.053 135.939 233.601C133.267 240.687 123.053 247.363 109.144 251.113C98.6231 253.95 74.7571 254.148 64.5001 251.483C56.6531 249.444 46.7741 245.102 43.0001 242.033L40.6007 240.082C39.5816 239.307 38.9479 238.151 38.4351 237.462C35.5621 233.601 35.0451 228.098 35.1681 202.701C35.2361 188.519 35.3921 176.916 35.5131 176.916C35.6351 176.916 36.894 178.668 38.311 180.809C47.406 194.554 82.43 201.617 108.41 194.947C134.728 188.19 144.348 174.114 131.318 161.427C126.535 156.77 120.731 153.805 110.5 150.796C99.6981 147.618 75.6051 147.373 64.0001 150.322C52.7831 153.173 44.6171 157.436 39.5231 163.101L35.1201 167.999L35.2131 145.957C35.2641 133.835 35.5741 123.919 35.9031 123.922C36.2311 123.926 37.2321 125.216 38.1281 126.79C42.0081 133.613 55.9961 140.049 72.4041 142.56C87.7991 144.917 104.296 143.267 118.639 137.937C121.465 136.887 124.125 136.34 124.549 136.722C124.974 137.104 125.052 136.942 124.723 136.363C124.395 135.784 125.859 134.239 127.978 132.93Z" fill="#541B1B"/>
<path d="M171.182 152.309C172.061 151.481 175.169 150.569 179.5 149.597C183.484 148.702 194.019 148.941 199.154 150.042C211.508 152.692 213.953 163.908 203.183 168.523C198.17 170.671 184.81 171.436 177.788 169.977C170.828 168.531 166 164.542 166 160.237C166 157.301 168.883 153.524 171.182 152.309Z" fill="#541B1B"/>
<path d="M64.9851 175.879C62.7071 170.38 65.7221 165.763 73.1691 163.348C79.2501 161.376 97.3791 161.911 101.655 164.189C106.471 166.754 108 168.74 108 172.432C108 177.389 104.639 180.591 97.5401 182.399C83.8591 185.882 67.7951 182.665 64.9851 175.879Z" fill="#541B1B"/>
</svg>
